<?xml version="1.0" encoding="UTF-8" standalone="no"?>
<!DOCTYPE svg PUBLIC "-//W3C//DTD SVG 1.1//EN" "http://www.w3.org/Graphics/SVG/1.1/DTD/svg11.dtd">
<!-- Generated by graphviz version 2.40.1 (20161225.0304)
 -->
<!-- Title: expr.y Pages: 1 -->
<svg width="1523pt" height="1154pt" viewBox="0.00 0.00 1522.57 1153.80" xmlns="http://www.w3.org/2000/svg" xmlns:xlink="http://www.w3.org/1999/xlink">
<g id="graph0" class="graph" transform="scale(1 1) rotate(0) translate(4 1149.8)">
<title>expr.y</title>
<polygon fill="#ffffff" stroke="transparent" points="-4,4 -4,-1149.8 1518.5699,-1149.8 1518.5699,4 -4,4"/>
<!-- 0 -->
<g id="node1" class="node">
<title>0</title>
<polygon fill="none" stroke="#000000" points="1064.5458,-1145.9001 805.4262,-1145.9001 805.4262,-970.4999 1064.5458,-970.4999 1064.5458,-1145.9001"/>
<text text-anchor="middle" x="934.986" y="-1129.2" font-family="Courier,monospace" font-size="14.00" fill="#000000">State 0</text>
<text text-anchor="start" x="813.2063" y="-1096.4" font-family="Courier,monospace" font-size="14.00" fill="#000000">  0 $accept: • S $end</text>
<text text-anchor="start" x="813.2063" y="-1079.6" font-family="Courier,monospace" font-size="14.00" fill="#000000">  1 S: • expr '\n'</text>
<text text-anchor="start" x="813.2063" y="-1062.8" font-family="Courier,monospace" font-size="14.00" fill="#000000">  2 expr: • expr '+' term</text>
<text text-anchor="start" x="813.2063" y="-1046" font-family="Courier,monospace" font-size="14.00" fill="#000000">  3     | • term</text>
<text text-anchor="start" x="813.2063" y="-1029.2" font-family="Courier,monospace" font-size="14.00" fill="#000000">  4 term: • term '*' factor</text>
<text text-anchor="start" x="813.2063" y="-1012.4" font-family="Courier,monospace" font-size="14.00" fill="#000000">  5     | • factor</text>
<text text-anchor="start" x="813.2063" y="-995.6" font-family="Courier,monospace" font-size="14.00" fill="#000000">  6 factor: • '(' expr ')'</text>
<text text-anchor="start" x="813.2063" y="-978.8" font-family="Courier,monospace" font-size="14.00" fill="#000000">  7       | • NUMBER</text>
</g>
<!-- 1 -->
<g id="node2" class="node">
<title>1</title>
<polygon fill="none" stroke="#000000" points="543.2553,-130.4014 342.7167,-130.4014 342.7167,-73.1986 543.2553,-73.1986 543.2553,-130.4014"/>
<text text-anchor="middle" x="442.986" y="-114" font-family="Courier,monospace" font-size="14.00" fill="#000000">State 1</text>
<text text-anchor="start" x="350.6014" y="-81.2" font-family="Courier,monospace" font-size="14.00" fill="#000000">  7 factor: NUMBER •</text>
</g>
<!-- 0&#45;&gt;1 -->
<g id="edge1" class="edge">
<title>0-&gt;1</title>
<path fill="none" stroke="#000000" d="M1064.7692,-1030.1318C1161.5184,-1000.6874 1276.986,-943.56 1276.986,-838.6 1276.986,-838.6 1276.986,-838.6 1276.986,-229 1276.986,-86.2047 783.7822,-147.4619 641.986,-130.6 613.2258,-127.1799 582.2053,-122.9517 553.4106,-118.7983"/>
<polygon fill="#000000" stroke="#000000" points="553.7249,-115.3073 543.3257,-117.3338 552.7189,-122.2346 553.7249,-115.3073"/>
<text text-anchor="middle" x="1302.1818" y="-512.8" font-family="Courier,monospace" font-size="14.00" fill="#000000">NUMBER</text>
</g>
<!-- 2 -->
<g id="node3" class="node">
<title>2</title>
<polygon fill="none" stroke="#000000" points="635.5458,-918.0005 376.4262,-918.0005 376.4262,-759.1995 635.5458,-759.1995 635.5458,-918.0005"/>
<text text-anchor="middle" x="505.986" y="-901.2" font-family="Courier,monospace" font-size="14.00" fill="#000000">State 2</text>
<text text-anchor="start" x="384.2063" y="-868.4" font-family="Courier,monospace" font-size="14.00" fill="#000000">  2 expr: • expr '+' term</text>
<text text-anchor="start" x="384.2063" y="-851.6" font-family="Courier,monospace" font-size="14.00" fill="#000000">  3     | • term</text>
<text text-anchor="start" x="384.2063" y="-834.8" font-family="Courier,monospace" font-size="14.00" fill="#000000">  4 term: • term '*' factor</text>
<text text-anchor="start" x="384.2063" y="-818" font-family="Courier,monospace" font-size="14.00" fill="#000000">  5     | • factor</text>
<text text-anchor="start" x="384.2063" y="-801.2" font-family="Courier,monospace" font-size="14.00" fill="#000000">  6 factor: • '(' expr ')'</text>
<text text-anchor="start" x="384.2063" y="-784.4" font-family="Courier,monospace" font-size="14.00" fill="#000000">  6       | '(' • expr ')'</text>
<text text-anchor="start" x="384.2063" y="-767.6" font-family="Courier,monospace" font-size="14.00" fill="#000000">  7       | • NUMBER</text>
</g>
<!-- 0&#45;&gt;2 -->
<g id="edge2" class="edge">
<title>0-&gt;2</title>
<path fill="none" stroke="#000000" d="M805.399,-991.8659C754.6723,-965.8996 696.3902,-936.0656 644.8061,-909.6604"/>
<polygon fill="#000000" stroke="#000000" points="646.0865,-906.3839 635.5901,-904.9428 642.8968,-912.615 646.0865,-906.3839"/>
<text text-anchor="middle" x="733.5839" y="-940" font-family="Courier,monospace" font-size="14.00" fill="#000000">'('</text>
</g>
<!-- 3 -->
<g id="node4" class="node">
<title>3</title>
<polygon fill="none" stroke="#000000" points="1514.6539,-867.2014 1305.3181,-867.2014 1305.3181,-809.9986 1514.6539,-809.9986 1514.6539,-867.2014"/>
<text text-anchor="middle" x="1409.986" y="-850.8" font-family="Courier,monospace" font-size="14.00" fill="#000000">State 3</text>
<text text-anchor="start" x="1313.4021" y="-818" font-family="Courier,monospace" font-size="14.00" fill="#000000">  0 $accept: S • $end</text>
</g>
<!-- 0&#45;&gt;3 -->
<g id="edge3" class="edge">
<title>0-&gt;3</title>
<path fill="none" stroke="#000000" stroke-dasharray="5,2" d="M1064.9224,-1035.2392C1135.1369,-1019.0911 1221.4405,-992.9892 1290.986,-952.6 1325.5888,-932.5041 1357.9018,-900.339 1380.0986,-875.2908"/>
<polygon fill="#000000" stroke="#000000" points="1383.0134,-877.2731 1386.9399,-867.4327 1377.7339,-872.6767 1383.0134,-877.2731"/>
<text text-anchor="middle" x="1318.1853" y="-940" font-family="Courier,monospace" font-size="14.00" fill="#000000">S</text>
</g>
<!-- 4 -->
<g id="node5" class="node">
<title>4</title>
<polygon fill="none" stroke="#000000" points="939.2483,-876.0011 696.7237,-876.0011 696.7237,-801.1989 939.2483,-801.1989 939.2483,-876.0011"/>
<text text-anchor="middle" x="817.986" y="-859.2" font-family="Courier,monospace" font-size="14.00" fill="#000000">State 4</text>
<text text-anchor="start" x="704.6049" y="-826.4" font-family="Courier,monospace" font-size="14.00" fill="#000000">  1 S: expr • '\n'</text>
<text text-anchor="start" x="704.6049" y="-809.6" font-family="Courier,monospace" font-size="14.00" fill="#000000">  2 expr: expr • '+' term</text>
</g>
<!-- 0&#45;&gt;4 -->
<g id="edge4" class="edge">
<title>0-&gt;4</title>
<path fill="none" stroke="#000000" stroke-dasharray="5,2" d="M888.2401,-970.4615C872.594,-941.095 855.7779,-909.5325 842.5216,-884.6515"/>
<polygon fill="#000000" stroke="#000000" points="845.5987,-882.9834 837.8076,-875.8036 839.4208,-886.2749 845.5987,-882.9834"/>
<text text-anchor="middle" x="893.7832" y="-940" font-family="Courier,monospace" font-size="14.00" fill="#000000">expr</text>
</g>
<!-- 5 -->
<g id="node6" class="node">
<title>5</title>
<polygon fill="none" stroke="#000000" points="1047.3358,-706.8011 728.6362,-706.8011 728.6362,-631.9989 1047.3358,-631.9989 1047.3358,-706.8011"/>
<text text-anchor="middle" x="887.986" y="-690" font-family="Courier,monospace" font-size="14.00" fill="#000000">State 5</text>
<text text-anchor="start" x="736.8112" y="-657.2" font-family="Courier,monospace" font-size="14.00" fill="#000000">  3 expr: term •  ['\n', '+', ')']</text>
<text text-anchor="start" x="736.8112" y="-640.4" font-family="Courier,monospace" font-size="14.00" fill="#000000">  4 term: term • '*' factor</text>
</g>
<!-- 0&#45;&gt;5 -->
<g id="edge5" class="edge">
<title>0-&gt;5</title>
<path fill="none" stroke="#000000" stroke-dasharray="5,2" d="M965.6073,-970.5627C984.709,-900.3747 999.1552,-801.3152 960.986,-724.6 959.2055,-721.0214 957.07,-717.6131 954.6665,-714.3761"/>
<polygon fill="#000000" stroke="#000000" points="957.3077,-712.0789 948.1895,-706.6836 951.953,-716.5875 957.3077,-712.0789"/>
<text text-anchor="middle" x="1001.7832" y="-834.4" font-family="Courier,monospace" font-size="14.00" fill="#000000">term</text>
</g>
<!-- 6 -->
<g id="node7" class="node">
<title>6</title>
<polygon fill="none" stroke="#000000" points="183.958,-393.2014 .014,-393.2014 .014,-335.9986 183.958,-335.9986 183.958,-393.2014"/>
<text text-anchor="middle" x="91.986" y="-376.8" font-family="Courier,monospace" font-size="14.00" fill="#000000">State 6</text>
<text text-anchor="start" x="8" y="-344" font-family="Courier,monospace" font-size="14.00" fill="#000000">  5 term: factor •</text>
</g>
<!-- 0&#45;&gt;6 -->
<g id="edge6" class="edge">
<title>0-&gt;6</title>
<path fill="none" stroke="#000000" stroke-dasharray="5,2" d="M805.035,-1053.6434C554.2414,-1041.2953 27.986,-996.5645 27.986,-838.6 27.986,-838.6 27.986,-838.6 27.986,-517 27.986,-475.3898 48.5182,-432.0238 66.3235,-402.2402"/>
<polygon fill="#000000" stroke="#000000" points="69.4731,-403.8004 71.736,-393.45 63.5124,-400.1301 69.4731,-403.8004"/>
<text text-anchor="middle" x="53.1818" y="-665.2" font-family="Courier,monospace" font-size="14.00" fill="#000000">factor</text>
</g>
<!-- 1R7 -->
<g id="node8" class="node">
<title>1R7</title>
<polygon fill="#b2df8a" stroke="#000000" points="442.986,-36 410.9987,-18 442.986,0 474.9733,-18 442.986,-36"/>
<text text-anchor="middle" x="442.986" y="-13.8" font-family="Courier,monospace" font-size="14.00" fill="#000000">R7</text>
</g>
<!-- 1&#45;&gt;1R7 -->
<g id="edge7" class="edge">
<title>1-&gt;1R7</title>
<path fill="none" stroke="#000000" d="M442.986,-72.9608C442.986,-64.4388 442.986,-55.1159 442.986,-46.6085"/>
<polygon fill="#000000" stroke="#000000" points="446.4861,-46.3902 442.986,-36.3903 439.4861,-46.3903 446.4861,-46.3902"/>
</g>
<!-- 2&#45;&gt;1 -->
<g id="edge8" class="edge">
<title>2-&gt;1</title>
<path fill="none" stroke="#000000" d="M376.3871,-774.5931C345.6944,-755.524 314.7278,-732.6505 289.986,-706.6 245.6946,-659.9659 236.8053,-641.7395 220.986,-579.4 175.3545,-399.5791 230.2411,-322.5096 352.986,-183.4 367.1268,-167.3739 384.1748,-151.2493 399.6127,-137.6155"/>
<polygon fill="#000000" stroke="#000000" points="402.277,-139.9361 407.515,-130.7266 397.6772,-134.6596 402.277,-139.9361"/>
<text text-anchor="middle" x="234.1818" y="-424" font-family="Courier,monospace" font-size="14.00" fill="#000000">NUMBER</text>
</g>
<!-- 2&#45;&gt;2 -->
<g id="edge9" class="edge">
<title>2-&gt;2</title>
<path fill="none" stroke="#000000" d="M635.6817,-853.8153C646.8145,-850.578 653.7657,-845.5063 653.7657,-838.6 653.7657,-833.9599 650.6278,-830.1478 645.192,-827.1639"/>
<polygon fill="#000000" stroke="#000000" points="646.2673,-823.8251 635.6817,-823.3847 643.6822,-830.3303 646.2673,-823.8251"/>
<text text-anchor="middle" x="666.3636" y="-834.4" font-family="Courier,monospace" font-size="14.00" fill="#000000">'('</text>
</g>
<!-- 2&#45;&gt;5 -->
<g id="edge11" class="edge">
<title>2-&gt;5</title>
<path fill="none" stroke="#000000" stroke-dasharray="5,2" d="M635.5802,-781.1986C687.7121,-758.1077 746.6738,-731.9917 794.493,-710.8111"/>
<polygon fill="#000000" stroke="#000000" points="796.1771,-713.8931 803.9029,-706.6431 793.3422,-707.4928 796.1771,-713.8931"/>
<text text-anchor="middle" x="770.7832" y="-728.8" font-family="Courier,monospace" font-size="14.00" fill="#000000">term</text>
</g>
<!-- 2&#45;&gt;6 -->
<g id="edge12" class="edge">
<title>2-&gt;6</title>
<path fill="none" stroke="#000000" stroke-dasharray="5,2" d="M376.2617,-810.9767C301.2518,-792.7445 216.2561,-767.4799 187.986,-741.4 91.3132,-652.2167 86.1845,-480.5268 89.2522,-403.5767"/>
<polygon fill="#000000" stroke="#000000" points="92.7586,-403.5189 89.7308,-393.3659 85.7663,-403.1911 92.7586,-403.5189"/>
<text text-anchor="middle" x="138.1818" y="-601.6" font-family="Courier,monospace" font-size="14.00" fill="#000000">factor</text>
</g>
<!-- 7 -->
<g id="node9" class="node">
<title>7</title>
<polygon fill="none" stroke="#000000" points="550.6469,-706.8011 299.3251,-706.8011 299.3251,-631.9989 550.6469,-631.9989 550.6469,-706.8011"/>
<text text-anchor="middle" x="424.986" y="-690" font-family="Courier,monospace" font-size="14.00" fill="#000000">State 7</text>
<text text-anchor="start" x="307.4056" y="-657.2" font-family="Courier,monospace" font-size="14.00" fill="#000000">  2 expr: expr • '+' term</text>
<text text-anchor="start" x="307.4056" y="-640.4" font-family="Courier,monospace" font-size="14.00" fill="#000000">  6 factor: '(' expr • ')'</text>
</g>
<!-- 2&#45;&gt;7 -->
<g id="edge10" class="edge">
<title>2-&gt;7</title>
<path fill="none" stroke="#000000" stroke-dasharray="5,2" d="M467.8578,-758.9545C460.8579,-744.3323 453.7631,-729.5121 447.4138,-716.2491"/>
<polygon fill="#000000" stroke="#000000" points="450.4092,-714.4003 442.9343,-706.8919 444.0954,-717.4229 450.4092,-714.4003"/>
<text text-anchor="middle" x="475.7832" y="-728.8" font-family="Courier,monospace" font-size="14.00" fill="#000000">expr</text>
</g>
<!-- 8 -->
<g id="node10" class="node">
<title>8</title>
<polygon fill="none" stroke="#000000" points="1514.6539,-698.0014 1305.3181,-698.0014 1305.3181,-640.7986 1514.6539,-640.7986 1514.6539,-698.0014"/>
<text text-anchor="middle" x="1409.986" y="-681.6" font-family="Courier,monospace" font-size="14.00" fill="#000000">State 8</text>
<text text-anchor="start" x="1313.4021" y="-648.8" font-family="Courier,monospace" font-size="14.00" fill="#000000">  0 $accept: S $end •</text>
</g>
<!-- 3&#45;&gt;8 -->
<g id="edge13" class="edge">
<title>3-&gt;8</title>
<path fill="none" stroke="#000000" d="M1409.986,-809.8975C1409.986,-781.9437 1409.986,-739.2523 1409.986,-708.2651"/>
<polygon fill="#000000" stroke="#000000" points="1413.4861,-708.2432 1409.986,-698.2433 1406.4861,-708.2433 1413.4861,-708.2432"/>
<text text-anchor="middle" x="1426.7832" y="-728.8" font-family="Courier,monospace" font-size="14.00" fill="#000000">$end</text>
</g>
<!-- 9 -->
<g id="node11" class="node">
<title>9</title>
<polygon fill="none" stroke="#000000" points="1248.958,-698.0014 1065.014,-698.0014 1065.014,-640.7986 1248.958,-640.7986 1248.958,-698.0014"/>
<text text-anchor="middle" x="1156.986" y="-681.6" font-family="Courier,monospace" font-size="14.00" fill="#000000">State 9</text>
<text text-anchor="start" x="1073" y="-648.8" font-family="Courier,monospace" font-size="14.00" fill="#000000">  1 S: expr '\n' •</text>
</g>
<!-- 4&#45;&gt;9 -->
<g id="edge14" class="edge">
<title>4-&gt;9</title>
<path fill="none" stroke="#000000" d="M878.3115,-801.2096C901.3509,-787.4623 928.071,-772.151 952.986,-759.4 993.1718,-738.8338 1039.0781,-718.3287 1077.1541,-702.0968"/>
<polygon fill="#000000" stroke="#000000" points="1078.8188,-705.1926 1086.6574,-698.0647 1076.0847,-698.7486 1078.8188,-705.1926"/>
<text text-anchor="middle" x="1041.7832" y="-728.8" font-family="Courier,monospace" font-size="14.00" fill="#000000">'\n'</text>
</g>
<!-- 10 -->
<g id="node12" class="node">
<title>10</title>
<polygon fill="none" stroke="#000000" points="758.5458,-579.3002 499.4262,-579.3002 499.4262,-454.6998 758.5458,-454.6998 758.5458,-579.3002"/>
<text text-anchor="middle" x="628.986" y="-562.8" font-family="Courier,monospace" font-size="14.00" fill="#000000">State 10</text>
<text text-anchor="start" x="507.2063" y="-530" font-family="Courier,monospace" font-size="14.00" fill="#000000">  2 expr: expr '+' • term</text>
<text text-anchor="start" x="507.2063" y="-513.2" font-family="Courier,monospace" font-size="14.00" fill="#000000">  4 term: • term '*' factor</text>
<text text-anchor="start" x="507.2063" y="-496.4" font-family="Courier,monospace" font-size="14.00" fill="#000000">  5     | • factor</text>
<text text-anchor="start" x="507.2063" y="-479.6" font-family="Courier,monospace" font-size="14.00" fill="#000000">  6 factor: • '(' expr ')'</text>
<text text-anchor="start" x="507.2063" y="-462.8" font-family="Courier,monospace" font-size="14.00" fill="#000000">  7       | • NUMBER</text>
</g>
<!-- 4&#45;&gt;10 -->
<g id="edge15" class="edge">
<title>4-&gt;10</title>
<path fill="none" stroke="#000000" d="M792.1396,-801.2569C774.6225,-777.5858 749.996,-747.2689 723.986,-724.6 712.4942,-714.5844 704.3301,-718.4896 694.7902,-706.6 667.7676,-672.9217 651.487,-627.4192 641.8808,-589.4324"/>
<polygon fill="#000000" stroke="#000000" points="645.2171,-588.3383 639.4625,-579.4426 638.4136,-589.9854 645.2171,-588.3383"/>
<text text-anchor="middle" x="707.5839" y="-665.2" font-family="Courier,monospace" font-size="14.00" fill="#000000">'+'</text>
</g>
<!-- 11 -->
<g id="node13" class="node">
<title>11</title>
<polygon fill="none" stroke="#000000" points="910.5458,-274.7002 651.4262,-274.7002 651.4262,-183.2998 910.5458,-183.2998 910.5458,-274.7002"/>
<text text-anchor="middle" x="780.986" y="-258" font-family="Courier,monospace" font-size="14.00" fill="#000000">State 11</text>
<text text-anchor="start" x="659.2063" y="-225.2" font-family="Courier,monospace" font-size="14.00" fill="#000000">  4 term: term '*' • factor</text>
<text text-anchor="start" x="659.2063" y="-208.4" font-family="Courier,monospace" font-size="14.00" fill="#000000">  6 factor: • '(' expr ')'</text>
<text text-anchor="start" x="659.2063" y="-191.6" font-family="Courier,monospace" font-size="14.00" fill="#000000">  7       | • NUMBER</text>
</g>
<!-- 5&#45;&gt;11 -->
<g id="edge16" class="edge">
<title>5-&gt;11</title>
<path fill="none" stroke="#000000" d="M878.7226,-631.8455C874.8808,-615.743 870.5082,-596.6941 866.986,-579.4 841.164,-452.6136 860.6035,-414.4158 816.986,-292.6 815.9501,-289.707 814.7881,-286.7922 813.533,-283.8856"/>
<polygon fill="#000000" stroke="#000000" points="816.6372,-282.2602 809.2483,-274.6671 810.2893,-285.2107 816.6372,-282.2602"/>
<text text-anchor="middle" x="861.5839" y="-424" font-family="Courier,monospace" font-size="14.00" fill="#000000">'*'</text>
</g>
<!-- 5R3 -->
<g id="node14" class="node">
<title>5R3</title>
<polygon fill="#b2df8a" stroke="#000000" points="907.986,-535 875.9987,-517 907.986,-499 939.9733,-517 907.986,-535"/>
<text text-anchor="middle" x="907.986" y="-512.8" font-family="Courier,monospace" font-size="14.00" fill="#000000">R3</text>
</g>
<!-- 5&#45;&gt;5R3 -->
<g id="edge17" class="edge">
<title>5-&gt;5R3</title>
<path fill="none" stroke="#000000" d="M892.8786,-632.1188C896.4648,-604.7917 901.249,-568.3362 904.4643,-543.8351"/>
<polygon fill="#000000" stroke="#000000" points="907.9487,-544.1821 905.7797,-533.8117 901.0082,-543.2712 907.9487,-544.1821"/>
</g>
<!-- 6R5 -->
<g id="node15" class="node">
<title>6R5</title>
<polygon fill="#b2df8a" stroke="#000000" points="91.986,-247 59.9987,-229 91.986,-211 123.9733,-229 91.986,-247"/>
<text text-anchor="middle" x="91.986" y="-224.8" font-family="Courier,monospace" font-size="14.00" fill="#000000">R5</text>
</g>
<!-- 6&#45;&gt;6R5 -->
<g id="edge18" class="edge">
<title>6-&gt;6R5</title>
<path fill="none" stroke="#000000" d="M91.986,-335.8427C91.986,-312.7556 91.986,-280.5064 91.986,-257.4903"/>
<polygon fill="#000000" stroke="#000000" points="95.4861,-257.3228 91.986,-247.3229 88.4861,-257.3229 95.4861,-257.3228"/>
</g>
<!-- 7&#45;&gt;10 -->
<g id="edge19" class="edge">
<title>7-&gt;10</title>
<path fill="none" stroke="#000000" d="M474.89,-632.1188C493.717,-618.0539 515.7809,-601.5708 537.234,-585.5441"/>
<polygon fill="#000000" stroke="#000000" points="539.5016,-588.219 545.4182,-579.4301 535.3121,-582.6111 539.5016,-588.219"/>
<text text-anchor="middle" x="533.5839" y="-601.6" font-family="Courier,monospace" font-size="14.00" fill="#000000">'+'</text>
</g>
<!-- 12 -->
<g id="node16" class="node">
<title>12</title>
<polygon fill="none" stroke="#000000" points="481.6469,-545.6014 230.3251,-545.6014 230.3251,-488.3986 481.6469,-488.3986 481.6469,-545.6014"/>
<text text-anchor="middle" x="355.986" y="-529.2" font-family="Courier,monospace" font-size="14.00" fill="#000000">State 12</text>
<text text-anchor="start" x="238.4056" y="-496.4" font-family="Courier,monospace" font-size="14.00" fill="#000000">  6 factor: '(' expr ')' •</text>
</g>
<!-- 7&#45;&gt;12 -->
<g id="edge20" class="edge">
<title>7-&gt;12</title>
<path fill="none" stroke="#000000" d="M408.1067,-632.1188C397.5168,-608.7289 383.8991,-578.6515 373.239,-555.1067"/>
<polygon fill="#000000" stroke="#000000" points="376.33,-553.4476 369.017,-545.7814 369.9531,-556.3348 376.33,-553.4476"/>
<text text-anchor="middle" x="411.5839" y="-601.6" font-family="Courier,monospace" font-size="14.00" fill="#000000">')'</text>
</g>
<!-- 8R0 -->
<g id="node17" class="node">
<title>8R0</title>
<polygon fill="#a6cee3" stroke="#000000" points="1409.986,-535 1369.6122,-517 1409.986,-499 1450.3598,-517 1409.986,-535"/>
<text text-anchor="middle" x="1409.986" y="-512.8" font-family="Courier,monospace" font-size="14.00" fill="#000000">Acc</text>
</g>
<!-- 8&#45;&gt;8R0 -->
<g id="edge21" class="edge">
<title>8-&gt;8R0</title>
<path fill="none" stroke="#000000" d="M1409.986,-640.7347C1409.986,-613.3317 1409.986,-572.273 1409.986,-545.07"/>
<polygon fill="#000000" stroke="#000000" points="1413.4861,-545.0337 1409.986,-535.0337 1406.4861,-545.0337 1413.4861,-545.0337"/>
</g>
<!-- 9R1 -->
<g id="node18" class="node">
<title>9R1</title>
<polygon fill="#b2df8a" stroke="#000000" points="1156.986,-535 1124.9987,-517 1156.986,-499 1188.9733,-517 1156.986,-535"/>
<text text-anchor="middle" x="1156.986" y="-512.8" font-family="Courier,monospace" font-size="14.00" fill="#000000">R1</text>
</g>
<!-- 9&#45;&gt;9R1 -->
<g id="edge22" class="edge">
<title>9-&gt;9R1</title>
<path fill="none" stroke="#000000" d="M1156.986,-640.7347C1156.986,-613.3317 1156.986,-572.273 1156.986,-545.07"/>
<polygon fill="#000000" stroke="#000000" points="1160.4861,-545.0337 1156.986,-535.0337 1153.4861,-545.0337 1160.4861,-545.0337"/>
</g>
<!-- 10&#45;&gt;1 -->
<g id="edge23" class="edge">
<title>10-&gt;1</title>
<path fill="none" stroke="#000000" d="M499.3481,-458.3491C496.5357,-457.0871 493.7456,-455.8361 490.986,-454.6 438.1803,-430.9468 403.5305,-450.3063 371.986,-401.8 318.0324,-318.8349 379.06,-199.2086 417.117,-139.1644"/>
<polygon fill="#000000" stroke="#000000" points="420.0663,-141.049 422.5489,-130.7491 414.185,-137.2528 420.0663,-141.049"/>
<text text-anchor="middle" x="378.1818" y="-296.8" font-family="Courier,monospace" font-size="14.00" fill="#000000">NUMBER</text>
</g>
<!-- 10&#45;&gt;2 -->
<g id="edge24" class="edge">
<title>10-&gt;2</title>
<path fill="none" stroke="#000000" d="M606.9135,-579.5681C593.6637,-616.6351 576.2703,-664.4493 559.986,-706.6 554.5695,-720.6202 548.6855,-735.4134 542.8602,-749.8246"/>
<polygon fill="#000000" stroke="#000000" points="539.5616,-748.6454 539.0462,-759.2277 546.0483,-751.2766 539.5616,-748.6454"/>
<text text-anchor="middle" x="600.5839" y="-665.2" font-family="Courier,monospace" font-size="14.00" fill="#000000">'('</text>
</g>
<!-- 10&#45;&gt;6 -->
<g id="edge26" class="edge">
<title>10-&gt;6</title>
<path fill="none" stroke="#000000" stroke-dasharray="5,2" d="M499.0659,-456.7015C496.3642,-455.953 493.6691,-455.2507 490.986,-454.6 414.9992,-436.1722 207.4924,-475.3744 139.5944,-436.6 126.0608,-428.8714 115.666,-415.5394 108.0933,-402.4324"/>
<polygon fill="#000000" stroke="#000000" points="111.1002,-400.6332 103.2976,-393.4659 104.9276,-403.9346 111.1002,-400.6332"/>
<text text-anchor="middle" x="165.1818" y="-424" font-family="Courier,monospace" font-size="14.00" fill="#000000">factor</text>
</g>
<!-- 13 -->
<g id="node19" class="node">
<title>13</title>
<polygon fill="none" stroke="#000000" points="774.923,-402.0011 381.049,-402.0011 381.049,-327.1989 774.923,-327.1989 774.923,-402.0011"/>
<text text-anchor="middle" x="577.986" y="-385.2" font-family="Courier,monospace" font-size="14.00" fill="#000000">State 13</text>
<text text-anchor="start" x="389.0175" y="-352.4" font-family="Courier,monospace" font-size="14.00" fill="#000000">  2 expr: expr '+' term •  ['\n', '+', ')']</text>
<text text-anchor="start" x="389.0175" y="-335.6" font-family="Courier,monospace" font-size="14.00" fill="#000000">  4 term: term • '*' factor</text>
</g>
<!-- 10&#45;&gt;13 -->
<g id="edge25" class="edge">
<title>10-&gt;13</title>
<path fill="none" stroke="#000000" stroke-dasharray="5,2" d="M608.0952,-454.5734C603.2696,-440.1534 598.2162,-425.0527 593.6576,-411.4305"/>
<polygon fill="#000000" stroke="#000000" points="596.9286,-410.1759 590.436,-401.8035 590.2905,-412.3974 596.9286,-410.1759"/>
<text text-anchor="middle" x="618.7832" y="-424" font-family="Courier,monospace" font-size="14.00" fill="#000000">term</text>
</g>
<!-- 11&#45;&gt;1 -->
<g id="edge27" class="edge">
<title>11-&gt;1</title>
<path fill="none" stroke="#000000" d="M659.4378,-183.2576C616.0724,-166.9378 568.1709,-148.911 528.4784,-133.9735"/>
<polygon fill="#000000" stroke="#000000" points="529.6889,-130.6894 519.0969,-130.4429 527.2234,-137.2409 529.6889,-130.6894"/>
<text text-anchor="middle" x="637.1818" y="-152.8" font-family="Courier,monospace" font-size="14.00" fill="#000000">NUMBER</text>
</g>
<!-- 11&#45;&gt;2 -->
<g id="edge28" class="edge">
<title>11-&gt;2</title>
<path fill="none" stroke="#000000" d="M789.5676,-274.7659C800.3467,-344.0202 812.4768,-478.0989 767.986,-579.4 755.233,-608.4372 737.3037,-605.6313 719.986,-632.2 700.2334,-662.5043 709.7057,-678.4517 686.986,-706.6 673.6406,-723.1341 657.7479,-738.6229 641.0029,-752.7596"/>
<polygon fill="#000000" stroke="#000000" points="638.7367,-750.0918 633.2553,-759.1585 643.1944,-755.4889 638.7367,-750.0918"/>
<text text-anchor="middle" x="810.5839" y="-512.8" font-family="Courier,monospace" font-size="14.00" fill="#000000">'('</text>
</g>
<!-- 14 -->
<g id="node20" class="node">
<title>14</title>
<polygon fill="none" stroke="#000000" points="910.5458,-130.4014 651.4262,-130.4014 651.4262,-73.1986 910.5458,-73.1986 910.5458,-130.4014"/>
<text text-anchor="middle" x="780.986" y="-114" font-family="Courier,monospace" font-size="14.00" fill="#000000">State 14</text>
<text text-anchor="start" x="659.2063" y="-81.2" font-family="Courier,monospace" font-size="14.00" fill="#000000">  4 term: term '*' factor •</text>
</g>
<!-- 11&#45;&gt;14 -->
<g id="edge29" class="edge">
<title>11-&gt;14</title>
<path fill="none" stroke="#000000" stroke-dasharray="5,2" d="M780.986,-183.0779C780.986,-169.2647 780.986,-154.243 780.986,-140.9145"/>
<polygon fill="#000000" stroke="#000000" points="784.4861,-140.6437 780.986,-130.6438 777.4861,-140.6438 784.4861,-140.6437"/>
<text text-anchor="middle" x="806.1818" y="-152.8" font-family="Courier,monospace" font-size="14.00" fill="#000000">factor</text>
</g>
<!-- 12R6 -->
<g id="node21" class="node">
<title>12R6</title>
<polygon fill="#b2df8a" stroke="#000000" points="292.986,-382.6 260.9987,-364.6 292.986,-346.6 324.9733,-364.6 292.986,-382.6"/>
<text text-anchor="middle" x="292.986" y="-360.4" font-family="Courier,monospace" font-size="14.00" fill="#000000">R6</text>
</g>
<!-- 12&#45;&gt;12R6 -->
<g id="edge30" class="edge">
<title>12-&gt;12R6</title>
<path fill="none" stroke="#000000" d="M344.1362,-488.3347C332.2524,-459.5872 314.1559,-415.811 302.9772,-388.7691"/>
<polygon fill="#000000" stroke="#000000" points="306.1138,-387.195 299.0589,-379.2906 299.6447,-389.8692 306.1138,-387.195"/>
</g>
<!-- 13&#45;&gt;11 -->
<g id="edge31" class="edge">
<title>13-&gt;11</title>
<path fill="none" stroke="#000000" d="M633.7251,-327.3673C655.4689,-312.843 680.7562,-295.9515 704.1764,-280.3073"/>
<polygon fill="#000000" stroke="#000000" points="706.339,-283.0718 712.7104,-274.6068 702.4508,-277.251 706.339,-283.0718"/>
<text text-anchor="middle" x="698.5839" y="-296.8" font-family="Courier,monospace" font-size="14.00" fill="#000000">'*'</text>
</g>
<!-- 13R2 -->
<g id="node22" class="node">
<title>13R2</title>
<polygon fill="#b2df8a" stroke="#000000" points="577.986,-247 545.9987,-229 577.986,-211 609.9733,-229 577.986,-247"/>
<text text-anchor="middle" x="577.986" y="-224.8" font-family="Courier,monospace" font-size="14.00" fill="#000000">R2</text>
</g>
<!-- 13&#45;&gt;13R2 -->
<g id="edge32" class="edge">
<title>13-&gt;13R2</title>
<path fill="none" stroke="#000000" d="M577.986,-327.1878C577.986,-305.1265 577.986,-277.653 577.986,-257.3821"/>
<polygon fill="#000000" stroke="#000000" points="581.4861,-257.2238 577.986,-247.2238 574.4861,-257.2238 581.4861,-257.2238"/>
</g>
<!-- 14R4 -->
<g id="node23" class="node">
<title>14R4</title>
<polygon fill="#b2df8a" stroke="#000000" points="780.986,-36 748.9987,-18 780.986,0 812.9733,-18 780.986,-36"/>
<text text-anchor="middle" x="780.986" y="-13.8" font-family="Courier,monospace" font-size="14.00" fill="#000000">R4</text>
</g>
<!-- 14&#45;&gt;14R4 -->
<g id="edge33" class="edge">
<title>14-&gt;14R4</title>
<path fill="none" stroke="#000000" d="M780.986,-72.9608C780.986,-64.4388 780.986,-55.1159 780.986,-46.6085"/>
<polygon fill="#000000" stroke="#000000" points="784.4861,-46.3902 780.986,-36.3903 777.4861,-46.3903 784.4861,-46.3902"/>
</g>
</g>
</svg>